<?xml version="1.0" encoding="UTF-8" standalone="no"?>
<!-- Generator: Adobe Illustrator 17.0.0, SVG Export Plug-In . SVG Version: 6.00 Build 0)  -->

<svg
   version="1.1"
   id="Warstwa_1"
   x="0px"
   y="0px"
   width="707.1px"
   height="200px"
   viewBox="0 0 707.1 200"
   enable-background="new 0 0 707.1 200"
   xml:space="preserve"
   sodipodi:docname="logo.svg"
   inkscape:version="1.1 (ce6663b3b7, 2021-05-25)"
   xmlns:inkscape="http://www.inkscape.org/namespaces/inkscape"
   xmlns:sodipodi="http://sodipodi.sourceforge.net/DTD/sodipodi-0.dtd"
   xmlns="http://www.w3.org/2000/svg"
   xmlns:svg="http://www.w3.org/2000/svg"><defs
   id="defs35" /><sodipodi:namedview
   id="namedview33"
   pagecolor="#ffffff"
   bordercolor="#666666"
   borderopacity="1.0"
   inkscape:pageshadow="2"
   inkscape:pageopacity="0.0"
   inkscape:pagecheckerboard="0"
   showgrid="false"
   inkscape:zoom="0.93551128"
   inkscape:cx="320.14579"
   inkscape:cy="66.273921"
   inkscape:window-width="1536"
   inkscape:window-height="827"
   inkscape:window-x="0"
   inkscape:window-y="0"
   inkscape:window-maximized="1"
   inkscape:current-layer="g30" />

<polygon
   fill="#FFFFFF"
   points="86.6,133.3 57.7,116.7 57.7,83.3 86.6,66.7 115.5,83.3 144.3,66.7 86.6,33.3 28.9,66.7 28.9,133.3   86.6,166.7 144.3,133.3 115.5,116.7 "
   id="polygon4" />



<polygon
   fill-opacity="0"
   points="86.6,100 0,50 0,150 "
   id="polygon12" />


<g
   id="g30">
	
	
	
	
	
	
<text
   xml:space="preserve"
   style="font-style:normal;font-weight:normal;font-size:85.3333px;line-height:1.25;font-family:sans-serif;fill:#000000;fill-opacity:1;stroke:none"
   x="456.61017"
   y="66.567413"
   id="text7470"><tspan
     sodipodi:role="line"
     id="tspan7468"
     x="456.61017"
     y="66.567413"
     style="font-style:normal;font-variant:normal;font-weight:bold;font-stretch:normal;font-size:85.3333px;font-family:Dyuthi;-inkscape-font-specification:'Dyuthi Bold';text-align:center;text-anchor:middle">STUDENT</tspan><tspan
     sodipodi:role="line"
     x="456.61017"
     y="178.31741"
     id="tspan8594"
     style="font-style:normal;font-variant:normal;font-weight:bold;font-stretch:normal;font-size:85.3333px;font-family:Dyuthi;-inkscape-font-specification:'Dyuthi Bold';text-align:center;text-anchor:middle"> <tspan
   style="font-style:normal;font-variant:normal;font-weight:bold;font-stretch:normal;font-size:85.3333px;font-family:Dyuthi;-inkscape-font-specification:'Dyuthi Bold';fill:#ff9955"
   id="tspan56580">MANGEMENT</tspan></tspan></text></g>
<g
   id="g1006"
   transform="matrix(6.2904797,0,0,6.5962914,10.248936,-25.04669)"><rect
     width="2.3499999"
     height="2.7060001"
     x="3.589"
     y="12.192"
     fill="#ffd9aa"
     id="rect952" /><rect
     width="2.3499999"
     height="2.7060001"
     x="26.058001"
     y="12.192"
     fill="#ffd9aa"
     id="rect954" /><path
     fill="#8b8891"
     d="m 21.778,10.727 h -1.5 l 1.061,-1.061 a 0.722,0.722 0 0 0 0,-1.021 L 19.855,7.161 a 0.722,0.722 0 0 0 -1.021,0 l -1.061,1.061 v -1.5 A 0.722,0.722 0 0 0 17.05,6 h -2.1 a 0.722,0.722 0 0 0 -0.722,0.722 v 1.5 L 13.166,7.161 a 0.722,0.722 0 0 0 -1.021,0 l -1.484,1.484 a 0.722,0.722 0 0 0 0,1.021 l 1.061,1.061 h -1.5 A 0.722,0.722 0 0 0 9.5,11.449 v 2.1 a 0.722,0.722 0 0 0 0.722,0.722 h 1.5 l -1.061,1.061 a 0.722,0.722 0 0 0 0,1.021 l 1.484,1.484 a 0.722,0.722 0 0 0 1.021,0 l 1.061,-1.061 v 1.5 A 0.722,0.722 0 0 0 14.95,19 h 2.1 a 0.722,0.722 0 0 0 0.722,-0.722 v -1.5 l 1.061,1.061 a 0.722,0.722 0 0 0 1.021,0 l 1.484,-1.484 a 0.722,0.722 0 0 0 0,-1.021 l -1.061,-1.061 h 1.5 a 0.722,0.722 0 0 0 0.722,-0.722 v -2.1 a 0.722,0.722 0 0 0 -0.721,-0.724 z"
     id="path956" /><circle
     cx="16"
     cy="12.5"
     r="2.1670001"
     fill="#d9d8da"
     id="circle958" /><path
     fill="#ffd9aa"
     d="M 7.51,10.1 A 2.741,2.741 0 0 1 2.29,11.27 2.58,2.58 0 0 1 2.02,10.1 2.742,2.742 0 0 1 7.26,8.97 v 0.01 a 2.626,2.626 0 0 1 0.25,1.12 z"
     id="path960" /><path
     fill="#57565d"
     d="M 7.26,8.97 V 8.98 L 3.59,9.71 v 1.57 H 2.3 L 2.29,11.27 A 2.58,2.58 0 0 1 2.02,10.1 2.742,2.742 0 0 1 7.26,8.97 Z"
     id="path962" /><path
     fill="#416fb3"
     d="m 4.443,23.73 1.5,1.645 -0.666,5.342 a 0.482,0.482 0 0 0 -0.008,0.1 0.819,0.819 0 0 0 1.614,0.2 L 8.168,25.949 A 1.6,1.6 0 0 0 8.109,25 L 6.722,21.458 H 2.806 Z"
     id="path964" /><path
     fill="#416fb3"
     d="m 1.377,31.641 v 0 A 0.8,0.8 0 0 1 0.586,30.729 l 1.436,-9.271 h 3.134 l -3,9.552 a 0.8,0.8 0 0 1 -0.779,0.631 z"
     id="path966" /><path
     fill="#82c8ec"
     d="m 11.42,17.93 a 1.174,1.174 0 0 1 -1.17,1.18 H 8.29 L 6.72,17.93 v 3.53 h -4.7 v -5.48 a 1.566,1.566 0 0 1 1.57,-1.57 h 1.8 a 1.576,1.576 0 0 1 0.98,0.34 l 2.51,2.01 h 1.37 a 1.165,1.165 0 0 1 1.17,1.17 z"
     id="path968" /><path
     fill="#ffd9aa"
     d="m 11.42,17.93 a 1.174,1.174 0 0 1 -1.17,1.18 H 9.52 L 9.5,19.1 v -2.34 h 0.75 a 1.165,1.165 0 0 1 1.17,1.17 z M 24.488,10.1 a 2.741,2.741 0 0 0 5.22,1.17 2.58,2.58 0 0 0 0.27,-1.17 2.742,2.742 0 0 0 -5.24,-1.13 v 0.01 a 2.626,2.626 0 0 0 -0.25,1.12 z"
     id="path970" /><path
     fill="#57565d"
     d="m 24.738,8.97 v 0.01 l 3.67,0.73 v 1.57 H 29.7 l 0.01,-0.01 A 2.58,2.58 0 0 0 29.98,10.1 2.742,2.742 0 0 0 24.74,8.97 Z"
     id="path972" /><path
     fill="#416fb3"
     d="m 27.555,23.73 -1.5,1.645 0.666,5.342 a 0.482,0.482 0 0 1 0.008,0.1 0.819,0.819 0 0 1 -1.614,0.2 L 23.83,25.949 A 1.6,1.6 0 0 1 23.889,25 l 1.386,-3.541 h 3.917 z"
     id="path974" /><path
     fill="#416fb3"
     d="m 30.621,31.641 v 0 a 0.8,0.8 0 0 0 0.791,-0.912 l -1.436,-9.271 h -3.134 l 3,9.552 a 0.8,0.8 0 0 0 0.779,0.631 z"
     id="path976" /><path
     fill="#55bb8c"
     d="m 20.578,17.93 a 1.174,1.174 0 0 0 1.17,1.18 h 1.96 l 1.57,-1.18 v 3.53 h 4.7 v -5.48 a 1.566,1.566 0 0 0 -1.57,-1.57 h -1.8 a 1.576,1.576 0 0 0 -0.98,0.34 l -2.51,2.01 h -1.37 a 1.165,1.165 0 0 0 -1.17,1.17 z"
     id="path978" /><path
     fill="#ffd9aa"
     d="m 20.578,17.93 a 1.174,1.174 0 0 0 1.17,1.18 h 0.73 l 0.02,-0.01 v -2.34 h -0.75 a 1.165,1.165 0 0 0 -1.17,1.17 z"
     id="path980" /><path
     d="m 31.908,30.653 -1.43,-9.233 v -5.445 a 2.065,2.065 0 0 0 -1.566,-2 v -1.114 a 3.247,3.247 0 0 0 1.249,-1.385 V 11.468 A 3.206,3.206 0 0 0 30.474,10.101 3.233,3.233 0 0 0 24.33,8.692 c -0.007,0.01 -0.011,0.022 -0.018,0.033 a 3.193,3.193 0 0 0 1.249,4.137 V 14.2 a 2.062,2.062 0 0 0 -0.241,0.161 l -2.372,1.9 H 21.97 a 1.179,1.179 0 0 0 -0.277,-1.278 l -0.207,-0.208 h 0.292 A 1.224,1.224 0 0 0 23,13.55 v -2.1 a 1.224,1.224 0 0 0 -1.223,-1.222 h -0.292 l 0.207,-0.207 a 1.222,1.222 0 0 0 0,-1.729 L 20.209,6.807 a 1.223,1.223 0 0 0 -1.729,0 L 18.272,7.015 V 6.722 A 1.223,1.223 0 0 0 17.051,5.5 h -2.1 A 1.223,1.223 0 0 0 13.729,6.722 V 7.015 L 13.521,6.807 a 1.224,1.224 0 0 0 -1.729,0 l -1.484,1.484 a 1.221,1.221 0 0 0 0,1.729 l 0.207,0.208 H 10.223 A 1.224,1.224 0 0 0 9,11.449 v 2.1 a 1.224,1.224 0 0 0 1.223,1.223 h 0.292 l -0.207,0.207 a 1.18,1.18 0 0 0 -0.277,1.279 H 9.053 L 6.68,14.358 A 2.051,2.051 0 0 0 6.44,14.197 V 12.861 A 3.192,3.192 0 0 0 7.685,8.719 C 7.685,8.711 7.677,8.702 7.672,8.694 a 3.231,3.231 0 1 0 -5.836,2.774 v 0.008 a 3.247,3.247 0 0 0 1.249,1.385 v 1.115 a 2.065,2.065 0 0 0 -1.566,2 v 5.444 l -1.428,9.239 a 1.3,1.3 0 0 0 2.545,0.5 l 2.023,-6.448 0.756,0.83 -0.632,5.077 a 0.944,0.944 0 0 0 -0.018,0.2 1.319,1.319 0 0 0 2.6,0.327 L 8.649,26.077 A 2.1,2.1 0 0 0 8.576,24.817 L 7.223,21.364 v -2.43 l 0.767,0.575 a 0.5,0.5 0 0 0 0.3,0.1 h 1.958 a 1.677,1.677 0 0 0 1.642,-1.351 1.213,1.213 0 0 0 1.63,-0.065 l 0.208,-0.208 v 0.293 a 1.223,1.223 0 0 0 1.221,1.222 h 2.1 a 1.223,1.223 0 0 0 1.222,-1.222 v -0.293 l 0.208,0.208 a 1.212,1.212 0 0 0 1.63,0.065 1.677,1.677 0 0 0 1.642,1.35 h 1.958 a 0.5,0.5 0 0 0 0.3,-0.1 l 0.767,-0.575 v 2.43 l -1.352,3.455 a 2.091,2.091 0 0 0 -0.073,1.259 l 1.284,5.071 a 1.319,1.319 0 0 0 2.6,-0.33 0.8,0.8 0 0 0 -0.012,-0.164 l -0.638,-5.113 0.756,-0.831 2.011,6.4 a 1.3,1.3 0 0 0 2.556,-0.462 z M 7.006,10.1 A 2.231,2.231 0 0 1 3.29,11.775 h 0.3 a 0.5,0.5 0 0 0 0.5,-0.5 V 10.119 L 6.932,9.556 A 2.215,2.215 0 0 1 7.006,10.1 Z m -1.567,3.169 v 0.644 c -0.017,0 -0.033,0 -0.05,0 h -1.3 v -0.64 a 3.157,3.157 0 0 0 1.351,0 z m -2.8,-2.493 A 2.208,2.208 0 0 1 2.524,10.101 2.232,2.232 0 0 1 6.445,8.633 L 3.492,9.218 a 0.5,0.5 0 0 0 -0.4,0.49 v 1.067 z M 1.669,30.9 C 1.614,31.152 1.223,31.117 1.151,31.033 A 0.293,0.293 0 0 1 1.08,30.801 l 1.371,-8.848 h 2.024 z m 5.974,-5.72 a 1.09,1.09 0 0 1 0.036,0.652 L 6.395,30.9 A 0.323,0.323 0 0 1 5.77,30.782 L 6.436,25.44 A 0.5,0.5 0 0 0 6.31,25.04 L 5.01,23.608 5.527,21.96 H 6.386 Z M 9,18.608 H 8.456 l -3,-2.25 a 0.5,0.5 0 1 0 -0.6,0.8 L 6.247,18.2 a 0.482,0.482 0 0 0 -0.025,0.123 v 2.633 h -3.7 v -4.981 a 1.068,1.068 0 0 1 1.066,-1.066 h 1.8 a 1.069,1.069 0 0 1 0.666,0.234 l 2.51,2.007 a 0.5,0.5 0 0 0 0.313,0.109 H 9 Z m 1.247,0 H 10 v -1.35 h 0.247 a 0.675,0.675 0 0 1 0,1.35 z M 20.985,16 19.5,17.486 a 0.222,0.222 0 0 1 -0.314,0 l -1.062,-1.061 a 0.5,0.5 0 0 0 -0.854,0.354 v 1.5 a 0.222,0.222 0 0 1 -0.222,0.222 h -2.1 a 0.222,0.222 0 0 1 -0.222,-0.222 v -1.5 a 0.5,0.5 0 0 0 -0.309,-0.462 0.494,0.494 0 0 0 -0.191,-0.038 0.5,0.5 0 0 0 -0.354,0.146 l -1.062,1.061 a 0.222,0.222 0 0 1 -0.314,0 L 11.015,16 a 0.222,0.222 0 0 1 0,-0.314 l 1.061,-1.061 a 0.5,0.5 0 0 0 -0.354,-0.854 h -1.5 A 0.223,0.223 0 0 1 10,13.55 v -2.1 a 0.222,0.222 0 0 1 0.223,-0.222 h 1.5 a 0.5,0.5 0 0 0 0.354,-0.854 L 11.015,9.312 A 0.22,0.22 0 0 1 10.95,9.155 0.222,0.222 0 0 1 11.015,9 L 12.5,7.514 a 0.222,0.222 0 0 1 0.314,0 l 1.062,1.061 A 0.5,0.5 0 0 0 14.73,8.221 v -1.5 a 0.222,0.222 0 0 1 0.222,-0.222 h 2.1 a 0.222,0.222 0 0 1 0.222,0.222 v 1.5 a 0.5,0.5 0 0 0 0.854,0.354 L 19.19,7.514 a 0.222,0.222 0 0 1 0.314,0 L 20.985,9 a 0.222,0.222 0 0 1 0,0.314 l -1.061,1.061 a 0.5,0.5 0 0 0 0.354,0.854 h 1.5 a 0.222,0.222 0 0 1 0.223,0.222 v 2.1 a 0.223,0.223 0 0 1 -0.223,0.223 h -1.5 a 0.5,0.5 0 0 0 -0.354,0.854 l 1.061,1.062 A 0.22,0.22 0 0 1 21.05,15.847 0.222,0.222 0 0 1 20.985,16 Z M 22,18.608 h -0.247 a 0.675,0.675 0 0 1 0,-1.35 H 22 Z m 5.236,-10.75 a 2.244,2.244 0 0 1 2.242,2.242 2.208,2.208 0 0 1 -0.115,0.675 H 28.912 V 9.708 a 0.5,0.5 0 0 0 -0.4,-0.49 L 25.559,8.633 A 2.228,2.228 0 0 1 27.236,7.859 Z M 24.994,10.1 a 2.215,2.215 0 0 1 0.075,-0.545 l 2.842,0.563 v 1.156 a 0.5,0.5 0 0 0 0.5,0.5 h 0.3 A 2.231,2.231 0 0 1 24.994,10.1 Z m 2.917,3.168 v 0.64 h -1.3 c -0.017,0 -0.033,0 -0.05,0 v -0.644 a 3.157,3.157 0 0 0 1.351,0 z M 25.69,25.039 a 0.5,0.5 0 0 0 -0.126,0.4 l 0.67,5.382 a 0.323,0.323 0 0 1 -0.322,0.322 0.329,0.329 0 0 1 -0.307,-0.242 l -1.284,-5.067 a 1.086,1.086 0 0 1 0.036,-0.651 l 1.261,-3.223 h 0.859 l 0.517,1.647 z m 0.087,-4.08 v -2.634 a 0.482,0.482 0 0 0 -0.025,-0.123 l 1.392,-1.044 a 0.5,0.5 0 1 0 -0.6,-0.8 l -3,2.25 H 23 v -1.349 h 0.123 a 0.5,0.5 0 0 0 0.313,-0.109 l 2.508,-2.007 a 1.074,1.074 0 0 1 0.667,-0.234 h 1.8 a 1.068,1.068 0 0 1 1.066,1.066 v 4.983 z m 5.071,10.08 a 0.332,0.332 0 0 1 -0.529,-0.178 l -2.794,-8.9 h 2.023 l 1.37,8.841 a 0.3,0.3 0 0 1 -0.069,0.236 z M 16,9.833 A 2.667,2.667 0 1 0 18.667,12.5 2.67,2.67 0 0 0 16,9.833 Z m 0,4.333 A 1.667,1.667 0 1 1 17.667,12.5 1.669,1.669 0 0 1 16,14.167 Z"
     id="path982" /></g></svg>
